<?xml version="1.0" encoding="utf-8"?>
<!-- Generator: Adobe Illustrator 27.5.0, SVG Export Plug-In . SVG Version: 6.00 Build 0)  -->
<svg version="1.1" xmlns="http://www.w3.org/2000/svg" xmlns:xlink="http://www.w3.org/1999/xlink" x="0px" y="0px"
	 viewBox="0 0 500 500" style="enable-background:new 0 0 500 500;" xml:space="preserve">
<g id="BACKGROUND">
	<rect style="fill:#C9E7FD;" width="500" height="500"/>
</g>
<g id="OBJECTS">
	<path style="fill-rule:evenodd;clip-rule:evenodd;fill:#AADAFD;" d="M80.238,225.283c15.987-38.334-12.235-54.429,4.083-99.625
		c14.863-41.165,53.752-49.203,85.124-49.801c40.606-0.774,91.738-46.92,139.319-24.769c50.93,23.711,44.787,70.298,69.88,84.466
		c38.326,21.64,62.628,38.292,61.319,77.285c-1.289,38.41-38.04,53.449-43.369,93.634c-2.771,20.894-3.285,86.645-63.226,98.283
		c-55.546,10.784-109.208-44.057-127.748-49.877c-44.033-13.822-76.443,19.275-110.107-14.555
		C53.622,298.224,66.502,258.22,80.238,225.283z"/>
	<ellipse style="fill-rule:evenodd;clip-rule:evenodd;fill:#AADAFD;" cx="247.059" cy="462.694" rx="159.735" ry="11.34"/>
	<g>
		<rect x="80.471" y="37.797" style="fill-rule:evenodd;clip-rule:evenodd;fill:#3359B7;" width="163.305" height="96.88"/>
		<rect x="86.199" y="42.71" style="fill-rule:evenodd;clip-rule:evenodd;fill:#C9E7FD;" width="151.91" height="87.036"/>
		<g>
			<defs>
				<rect id="SVGID_1_" x="86.199" y="42.71" width="151.91" height="87.036"/>
			</defs>
			<clipPath id="SVGID_00000097481843060620091650000017551834310446708645_">
				<use xlink:href="#SVGID_1_"  style="overflow:visible;"/>
			</clipPath>
			
				<path style="clip-path:url(#SVGID_00000097481843060620091650000017551834310446708645_);fill-rule:evenodd;clip-rule:evenodd;fill:#FFFFFF;" d="
				M222.506,14.239l-22.81-7.752L84.506,166.221l22.81,7.752L222.506,14.239z M240.124,20.226l-10.09-3.428l-115.19,159.734
				l10.09,3.429L240.124,20.226z"/>
		</g>
		<rect x="159.032" y="42.711" style="fill-rule:evenodd;clip-rule:evenodd;fill:#3359B7;" width="6.183" height="91.966"/>
	</g>
	<g>
		<g>
			<path style="fill-rule:evenodd;clip-rule:evenodd;fill:#FFFFFF;" d="M311.626,149.895c-7.707-6.31-12.631-15.897-12.631-26.626
				c0-18.982,15.411-34.393,34.394-34.393c18.982,0,34.393,15.411,34.393,34.393c0,18.982-15.411,34.394-34.393,34.394
				c-4.44,0-8.685-0.843-12.583-2.378l-13.603,13.584L311.626,149.895z"/>
			<path style="fill-rule:evenodd;clip-rule:evenodd;fill:#C9E7FD;" d="M313.293,109.336h41.457v-1.342h-41.457V109.336z
				 M313.293,115.705h41.457v-1.342h-41.457V115.705z M313.293,122.074h41.457v-1.342h-41.457V122.074z M313.293,128.444h41.457
				v-1.342h-41.457V128.444z M313.293,134.813h41.457v-1.342h-41.457V134.813z M313.293,141.183h41.457v-1.342h-41.457V141.183z"/>
		</g>
		<g>
			<path style="fill-rule:evenodd;clip-rule:evenodd;fill:#FFFFFF;" d="M326.421,211.108c-0.091-0.736-0.14-1.475-0.14-2.217
				c0-6.877,0-13.753,0-20.63c0-1.789,0.273-3.576,0.816-5.281c0.778-2.446,2.106-4.708,3.855-6.587
				c2.035-2.186,4.626-3.837,7.474-4.742c1.706-0.542,3.492-0.816,5.282-0.816c10.532,0,21.064,0,31.597,0
				c1.789,0,3.576,0.274,5.281,0.816c2.08,0.662,4.028,1.719,5.719,3.099c2.006,1.635,3.641,3.716,4.751,6.054
				c1.103,2.324,1.673,4.885,1.675,7.457c0,6.877,0,13.754,0,20.63c-0.001,1.753-0.263,3.505-0.784,5.179
				c-0.534,1.717-1.339,3.348-2.372,4.82c-1.124,1.599-2.515,3.006-4.1,4.149c-1.284,0.925-2.695,1.675-4.181,2.219
				c-1.915,0.701-3.951,1.059-5.989,1.059c-10.533,0-21.065,0-31.597,0c-1.323,0-2.645-0.149-3.934-0.447
				c-1.454-0.337-2.864-0.862-4.184-1.559c-1.301-0.687-2.506-1.539-3.597-2.524l-0.032-0.029l-10.362,6.846l4.834-17.404
				L326.421,211.108z"/>
			<rect x="359.275" y="180.736" style="fill-rule:evenodd;clip-rule:evenodd;fill:#CA5131;" width="24.298" height="37.423"/>
			<path style="fill-rule:evenodd;clip-rule:evenodd;fill:#FFFFFF;" d="M362.949,184.888h17.473v-0.548h-17.473V184.888z
				 M362.949,187.488h17.473v-0.548h-17.473V187.488z M362.949,190.088h17.473v-0.548h-17.473V190.088z M362.949,192.689h17.473
				v-0.548h-17.473V192.689z M362.949,195.289h17.473v-0.548h-17.473V195.289z M362.949,197.889h17.473v-0.548h-17.473V197.889z
				 M362.949,200.35h17.473v-0.548h-17.473V200.35z M362.949,202.95h17.473v-0.548h-17.473V202.95z M362.949,205.551h17.473v-0.548
				h-17.473V205.551z M362.949,208.151h17.473v-0.548h-17.473V208.151z M362.949,210.751h17.473v-0.548h-17.473V210.751z
				 M362.949,213.351h17.473v-0.548h-17.473V213.351z"/>
			<rect x="336.783" y="180.735" style="fill-rule:evenodd;clip-rule:evenodd;fill:#E79E34;" width="20.492" height="17.03"/>
			<g>
				<defs>
					
						<rect id="SVGID_00000147902061585438807720000004629854104362149541_" x="336.783" y="180.735" width="20.492" height="17.03"/>
				</defs>
				<clipPath id="SVGID_00000132777043027940611830000016956489460255465375_">
					<use xlink:href="#SVGID_00000147902061585438807720000004629854104362149541_"  style="overflow:visible;"/>
				</clipPath>
				
					<path style="clip-path:url(#SVGID_00000132777043027940611830000016956489460255465375_);fill-rule:evenodd;clip-rule:evenodd;fill:#CA5131;" d="
					M345.073,197.932c0.531-1.37,0.464-2.887,0.531-4.332c0.018-0.401,0.027-0.797,0.009-1.198c-0.002-0.031-0.048-0.32-0.027-0.341
					c0.097-0.099,0.325-0.068,0.418-0.069c0.352-0.005,0.688-0.029,1.032-0.113c0.118-0.029,0.9-0.363,0.946-0.233
					c0.161,0.46,0.023,1.07-0.002,1.543c-0.089,1.671-0.353,3.766,1.188,4.819"/>
				
					<path style="clip-path:url(#SVGID_00000132777043027940611830000016956489460255465375_);fill-rule:evenodd;clip-rule:evenodd;fill:#5FA4EC;" d="
					M346.238,194.322c-1.122,0.903-2.536,0.373-3.25-0.807c-0.186-0.308-0.328-0.715-0.225-1.08
					c0.044-0.152,0.301-0.227,0.271-0.382c-0.009-0.052-0.101-0.017-0.151-0.029c-0.172-0.042-0.336-0.101-0.484-0.204
					c-0.431-0.294-0.76-0.751-0.949-1.248c-0.222-0.585-0.228-1.29,0.022-1.87c0.04-0.092,0.385-0.424,0.385-0.474
					c0-0.148-0.253-0.353-0.324-0.472c-0.126-0.207-0.187-0.446-0.182-0.691c0.02-0.965,1.161-1.863,2.007-2.005
					c0.342-0.057,0.58,0.135,0.876,0.15c0.024,0.001,0.133-0.23,0.137-0.24c0.132-0.28,0.246-0.544,0.447-0.783
					c0.466-0.553,1.136-0.896,1.847-0.901c0.616-0.004,1.225,0.28,1.637,0.756c0.133,0.154,0.259,0.616,0.396,0.714
					c0.109,0.077,0.559-0.094,0.695-0.093c0.355,0.001,0.7,0.138,0.989,0.346c0.809,0.586,1.255,1.516,1.368,2.518
					c0.035,0.311,0.049,0.622,0.049,0.934c0,0.029-0.029,0.26-0.003,0.302c0.056,0.094,0.335,0.148,0.425,0.228
					c0.251,0.224,0.346,0.627,0.37,0.954c0.06,0.832-0.214,1.613-0.73,2.246c-0.197,0.243-0.447,0.448-0.717,0.595
					c-0.06,0.032-0.166,0.081-0.233,0.105c-0.056,0.021-0.197-0.008-0.175,0.051c0.041,0.105,0.149,0.148,0.177,0.285
					c0.139,0.689-0.579,1.234-1.09,1.491c-0.97,0.487-2.07,0.365-3.003-0.145"/>
			</g>
			<rect x="336.783" y="199.785" style="fill-rule:evenodd;clip-rule:evenodd;fill:#5FA4EC;" width="20.492" height="18.395"/>
			<path style="fill-rule:evenodd;clip-rule:evenodd;fill:#FFFFFF;" d="M339.603,203.204h15.332v-0.496h-15.332V203.204z
				 M339.603,205.56h15.332v-0.496h-15.332V205.56z M339.603,207.915h15.332v-0.496h-15.332V207.915z M339.603,210.27h15.332v-0.496
				h-15.332V210.27z M339.603,212.626h15.332v-0.496h-15.332V212.626z M339.603,214.982h15.332v-0.496h-15.332V214.982z"/>
		</g>
		<g>
			<path style="fill-rule:evenodd;clip-rule:evenodd;fill:#FFFFFF;" d="M168.383,167.104h-60.235c-4.683,0-8.485-3.801-8.485-8.485
				v-52.564c0-4.683,3.802-8.485,8.485-8.485h71.978c4.683,0,8.485,3.802,8.485,8.485v52.564c0,3.339-1.933,6.229-4.738,7.614
				l7.452,19.044L168.383,167.104z"/>
			<rect x="111.389" y="109.504" style="fill-rule:evenodd;clip-rule:evenodd;fill:#E79E34;" width="65.58" height="46.681"/>
			<rect x="113.829" y="111.592" style="fill-rule:evenodd;clip-rule:evenodd;fill:#FFFFFF;" width="58.239" height="42.617"/>
			<rect x="173.468" y="114.658" style="fill-rule:evenodd;clip-rule:evenodd;fill:#FFFFFF;" width="2.51" height="36.128"/>
			<g>
				<defs>
					<rect id="SVGID_00000139273461929505575200000017590361044258151562_" x="173.468" y="114.658" width="2.51" height="36.128"/>
				</defs>
				<clipPath id="SVGID_00000110438771009466138210000003120399989492156802_">
					<use xlink:href="#SVGID_00000139273461929505575200000017590361044258151562_"  style="overflow:visible;"/>
				</clipPath>
				
					<rect x="172.147" y="144.462" style="clip-path:url(#SVGID_00000110438771009466138210000003120399989492156802_);fill-rule:evenodd;clip-rule:evenodd;fill:#E79E34;" width="4.884" height="3.193"/>
				
					<rect x="170.703" y="118.107" style="clip-path:url(#SVGID_00000110438771009466138210000003120399989492156802_);fill-rule:evenodd;clip-rule:evenodd;fill:#D18920;" width="12.19" height="8.678"/>
			</g>
			<path style="fill-rule:evenodd;clip-rule:evenodd;fill:#C9E7FD;" d="M118.657,120.959h48.313v-1.124h-48.313V120.959z
				 M118.657,126.297h48.313v-1.124h-48.313V126.297z M118.657,131.635h48.313v-1.125h-48.313V131.635z M118.657,136.972h48.313
				v-1.124h-48.313V136.972z M118.657,142.31h48.313v-1.124h-48.313V142.31z M118.657,147.648h48.313v-1.124h-48.313V147.648z"/>
			<path style="fill-rule:evenodd;clip-rule:evenodd;fill:#27245D;" d="M174.705,116.172l-0.65,0.678l-0.36-0.346l1.019-1.063
				l0.958,1.05l-0.369,0.337L174.705,116.172z M174.705,149.438l-0.65-0.678l-0.36,0.345l1.019,1.063l0.958-1.05l-0.369-0.336
				L174.705,149.438z"/>
		</g>
	</g>
	<g>
		<g>
			<g>
				<g>
					<path style="fill-rule:evenodd;clip-rule:evenodd;fill:#27245D;" d="M206.572,314.162
						c-1.833-7.629-19.445-64.244-17.302-84.833c5.74-55.173,40.852-65.65,65.751-64.051c41.574,2.668,57.647,42.372,56.987,66.368
						c-0.943,34.293-10.625,54.241-24.723,84.712"/>
					<polygon style="fill-rule:evenodd;clip-rule:evenodd;fill:#38395F;" points="278.043,397.966 258.249,328.569 267.719,325.867 
						299.171,460.712 295.94,460.712 280.955,408.178 218.363,408.178 203.379,460.712 199.697,460.712 231.6,325.867 
						241.07,328.569 221.276,397.966 					"/>
				</g>
				<g>
					<path style="fill-rule:evenodd;clip-rule:evenodd;fill:#3359B7;" d="M296.221,255.46c0.464,4.443,0.099,11.945-7.418,12.844
						c-21.196,2.537-24.004-2.198-26.905-3.775l0.381,1.859l-11.46-1.287l-11.46,1.287l0.381-1.859
						c-2.899,1.577-10.786,7.031-32.132,6.935c-21.64-0.097-19.713-11.787-17.122-22.048c3.357-13.284,11.285-41.417,19.969-52.8
						c10.727-14.061,39.739-16.708,39.739-16.708s25.282,1.459,39.383,20.033c1.029,1.355,1.9,3.097,2.637,5.119l0.186-0.644
						c0,0,16.197,43.987,20.984,50.725c1.255,1.765,14.714,7.106,17.572,8.975c3.032,1.983,3.637,0.15,2.714,0.943
						c-0.062,0.053-0.13,0.118-0.205,0.196c-1.578,1.648-6.993,0.588-6.993,0.588l-1.257,4.426l-3.309,0.508
						c0,0-17.335,1.088-18.583-1.437C301.767,266.194,299.088,260.984,296.221,255.46z"/>
					<g>
						<defs>
							<path id="SVGID_00000155130045460385285720000010758679552568980136_" d="M296.221,255.46
								c0.464,4.443,0.099,11.945-7.418,12.844c-21.196,2.537-24.004-2.198-26.905-3.775l0.381,1.859l-11.46-1.287l-11.46,1.287
								l0.381-1.859c-2.899,1.577-10.786,7.031-32.132,6.935c-21.64-0.097-19.713-11.787-17.122-22.048
								c3.357-13.284,11.285-41.417,19.969-52.8c10.727-14.061,39.739-16.708,39.739-16.708s25.282,1.459,39.383,20.033
								c1.029,1.355,1.9,3.097,2.637,5.119l0.186-0.644c0,0,16.197,43.987,20.984,50.725c1.255,1.765,14.714,7.106,17.572,8.975
								c3.032,1.983,3.637,0.15,2.714,0.943c-0.062,0.053-0.13,0.118-0.205,0.196c-1.578,1.648-6.993,0.588-6.993,0.588
								l-1.257,4.426l-3.309,0.508c0,0-17.335,1.088-18.583-1.437C301.767,266.194,299.088,260.984,296.221,255.46z"/>
						</defs>
						<clipPath id="SVGID_00000016794825070024457470000008027002553957269656_">
							<use xlink:href="#SVGID_00000155130045460385285720000010758679552568980136_"  style="overflow:visible;"/>
						</clipPath>
						
							<path style="clip-path:url(#SVGID_00000016794825070024457470000008027002553957269656_);fill-rule:evenodd;clip-rule:evenodd;fill:#7098E6;" d="
							M207.229,180.697c6.044,1.648,12.272,3.091,18.561,4.164c6.296,1.075,12.65,1.776,18.934,1.99
							c1.725,0.05,3.426-0.022,5.118-0.154c3.937-0.306,7.817-0.932,11.804-1.029c3.149-0.08,6.301,0.11,9.444,0.453
							c4.724,0.516,9.424,1.379,14.062,2.209c0.123,0.022,0.24-0.059,0.263-0.181c0.022-0.123-0.06-0.241-0.182-0.263
							c-4.641-0.868-9.348-1.773-14.079-2.326c-3.167-0.37-6.345-0.581-9.521-0.522c-3.999,0.078-7.893,0.68-11.842,0.973
							c-1.667,0.124-3.345,0.194-5.045,0.141c-6.257-0.159-12.588-0.821-18.867-1.82c-6.287-1-12.524-2.339-18.579-3.898
							c-0.072-0.019-0.147,0.023-0.166,0.097C207.113,180.603,207.155,180.678,207.229,180.697z M205.481,191.734
							c3.307,0.35,6.604,0.699,9.911,0.83c2.209,0.089,4.421,0.078,6.643-0.091c3.787-0.299,7.589-1.114,11.396-1.413
							c1.626-0.129,3.251-0.163,4.878-0.02c1.487,0.129,2.935,0.402,4.356,0.762c5.782,1.469,11.155,4.385,17.105,5.15
							c4.988,0.643,10.003,0.547,15.013,0.09c7.477-0.68,14.938-2.15,22.286-2.992c0.097-0.011,0.166-0.098,0.156-0.195
							c-0.011-0.097-0.098-0.167-0.195-0.157c-7.348,0.789-14.817,2.173-22.292,2.83c-4.974,0.437-9.951,0.56-14.904-0.071
							c-5.931-0.757-11.286-3.664-17.049-5.121c-1.447-0.367-2.919-0.642-4.432-0.772c-1.653-0.141-3.306-0.103-4.957,0.03
							c-3.808,0.309-7.607,1.133-11.394,1.441c-2.204,0.187-4.402,0.213-6.595,0.148c-3.3-0.099-6.593-0.409-9.896-0.722
							c-0.076-0.008-0.142,0.047-0.149,0.123C205.352,191.66,205.406,191.727,205.481,191.734z M194.286,197.874
							c4.994,4.136,10.848,5.623,16.975,5.781c9.042,0.233,18.671-2.425,27.001-3.495c4.032-0.528,7.966-0.505,11.856-0.195
							c9.237,0.738,18.223,3.103,27.647,3.744c4.48,0.291,9.105-0.01,13.678-0.726c4.554-0.713,9.052-1.836,13.325-3.047
							c0.078-0.021,0.125-0.101,0.103-0.18c-0.02-0.079-0.101-0.125-0.18-0.104c-5.131,1.314-10.586,2.437-16.042,3.018
							c-3.64,0.387-7.282,0.544-10.833,0.291c-9.421-0.647-18.402-3.031-27.637-3.761c-3.942-0.312-7.929-0.322-12.015,0.221
							c-8.296,1.124-17.876,3.807-26.891,3.676c-6.039-0.087-11.829-1.435-16.814-5.433c-0.059-0.047-0.145-0.038-0.192,0.02
							C194.219,197.739,194.227,197.826,194.286,197.874z M186.28,214.632c5.384,3.051,13.211,4.982,21.202,5.944
							c7.962,0.959,16.084,0.954,22.097,0.23c8.477-1.033,16.605-3.579,24.941-5.229c3.536-0.699,7.109-1.239,10.763-1.426
							c11.021-0.579,21.703,2.004,32.858,2.978c4.638,0.405,9.358,0.505,14.207,0.044c0.101-0.007,0.176-0.097,0.167-0.197
							c-0.009-0.1-0.097-0.175-0.198-0.166c-3.196,0.236-6.328,0.202-9.417,0.038c-12.904-0.686-25.057-4.031-37.653-3.398
							c-3.688,0.193-7.294,0.738-10.861,1.45c-8.319,1.659-16.426,4.223-24.885,5.271c-7.076,0.891-17.093,0.759-26.322-0.706
							c-6.374-1.01-12.374-2.651-16.766-5.072c-0.066-0.036-0.149-0.013-0.186,0.053C186.19,214.512,186.214,214.595,186.28,214.632
							z M181.242,232.851c4.877,1.237,9.887,2.881,14.96,3.778c3.414,0.603,6.855,0.866,10.298,0.457
							c5.801-0.697,11.035-2.765,16.572-3.803c2.32-0.435,4.693-0.689,7.185-0.578c4.732,0.209,9.396,0.913,14.097,1.322
							c2.02,0.175,4.048,0.296,6.09,0.302c5.15,0.011,10.275-0.551,15.407-0.62c2.184-0.029,4.369,0.031,6.56,0.264
							c9.255,0.985,18.559,2.781,27.876,3.426c2.503,0.173,5.006,0.283,7.51,0.231c3.737-0.077,7.467-0.483,11.192-1.253
							c0.086-0.016,0.144-0.1,0.128-0.188c-0.017-0.087-0.101-0.145-0.189-0.128c-3.718,0.642-7.431,0.862-11.14,0.878
							c-2.486,0.011-4.971-0.057-7.454-0.226c-9.309-0.635-18.607-2.415-27.854-3.388c-2.216-0.231-4.428-0.289-6.638-0.254
							c-5.129,0.08-10.25,0.654-15.397,0.654c-2.025,0.001-4.036-0.114-6.04-0.283c-4.71-0.395-9.383-1.087-14.123-1.285
							c-2.535-0.106-4.948,0.158-7.306,0.605c-5.524,1.052-10.743,3.132-16.531,3.842c-3.396,0.422-6.794,0.171-10.169-0.4
							c-5.069-0.856-10.087-2.436-14.968-3.621c-0.072-0.018-0.147,0.027-0.165,0.1
							C181.124,232.759,181.169,232.833,181.242,232.851z M175.404,245.612c3.548,1.934,7.196,3.493,10.979,4.388
							c3.8,0.899,7.734,1.126,11.821,0.453c8.331-1.388,15.646-5.706,23.668-8.096c1.968-0.585,3.978-1.055,6.058-1.333
							c3.121-0.417,6.166-0.369,9.173-0.102c7.195,0.637,14.181,2.516,21.49,2.342c1.356-0.032,2.71-0.104,4.064-0.202
							c5.382-0.389,10.754-1.177,16.143-1.418c6.814-0.306,13.713-0.047,20.553-0.377c2.948-0.142,5.884-0.395,8.799-0.844
							c3.409-0.525,6.804-1.16,10.189-1.855c5.067-1.041,10.112-2.209,15.175-3.215c0.104-0.02,0.173-0.12,0.152-0.224
							c-0.02-0.105-0.12-0.172-0.224-0.153c-5.923,1.1-11.829,2.387-17.756,3.509c-2.538,0.482-5.079,0.939-7.629,1.325
							c-2.894,0.438-5.81,0.678-8.737,0.816c-6.839,0.321-13.739,0.07-20.551,0.377c-5.396,0.243-10.772,1.034-16.16,1.425
							c-1.343,0.097-2.687,0.169-4.033,0.202c-7.286,0.179-14.249-1.695-21.422-2.324c-3.051-0.268-6.14-0.311-9.307,0.115
							c-2.111,0.285-4.152,0.762-6.149,1.36c-7.998,2.395-15.281,6.728-23.587,8.129c-4.014,0.685-7.877,0.464-11.623-0.376
							c-3.762-0.842-7.408-2.307-10.958-4.163c-0.066-0.036-0.149-0.011-0.184,0.055
							C175.312,245.494,175.337,245.577,175.404,245.612z M175.573,254.553c8.481,6.757,16.549,9.457,24.672,9.963
							c12.57,0.783,25.258-3.694,39.827-6.316c3.873-0.706,7.762-1.116,11.662-1.345c15.661-0.92,31.496,1.095,47.145-1.049
							c12.1-1.681,23.181-7.336,34.849-10.271c2.92-0.734,5.874-1.315,8.898-1.6c0.102-0.009,0.178-0.098,0.169-0.201
							c-0.009-0.102-0.098-0.178-0.2-0.169c-4.58,0.335-9.027,1.298-13.408,2.584c-10.093,2.961-19.854,7.511-30.405,8.942
							c-15.633,2.13-31.449,0.096-47.092,1.01c-3.93,0.229-7.85,0.645-11.753,1.356c-14.507,2.677-27.125,7.16-39.658,6.48
							c-8.046-0.437-16.062-3.003-24.536-9.598c-0.06-0.046-0.145-0.036-0.192,0.023
							C175.504,254.419,175.515,254.506,175.573,254.553z M181.475,272.536c1.432,0.171,2.852,0.394,4.267,0.648
							c5.68,1.019,11.262,2.541,17.003,3.255c6.126,0.744,12.322,0.938,18.513,0.764c6.184-0.174,12.364-0.715,18.469-1.428
							c3.835-0.456,7.623-1.125,11.387-1.903c8.766-1.811,17.401-4.219,26.203-5.924c1.644-0.318,3.294-0.564,4.947-0.767
							c6.674-0.822,13.413-0.936,20.036-2.086c3.92-0.681,7.706-1.91,11.565-2.838c1.636-0.393,3.286-0.731,4.966-0.949
							c3.932-0.513,7.881-0.68,11.834-0.68c5.944,0.002,11.899,0.403,17.82,0.787c0.113,0.007,0.211-0.078,0.22-0.19
							c0.009-0.113-0.077-0.211-0.19-0.22c-5.929-0.469-11.89-0.992-17.847-1.045c-3.983-0.034-7.963,0.148-11.926,0.655
							c-1.705,0.218-3.379,0.559-5.041,0.956c-3.846,0.918-7.618,2.139-11.524,2.813c-6.613,1.141-13.34,1.242-20.004,2.06
							c-1.67,0.205-3.338,0.456-4.997,0.778c-8.805,1.707-17.443,4.117-26.212,5.932c-3.743,0.774-7.51,1.44-11.324,1.895
							c-6.081,0.738-12.24,1.299-18.403,1.504c-6.16,0.204-12.327,0.051-18.429-0.653c-5.738-0.644-11.327-2.104-17.01-3.047
							c-1.424-0.237-2.854-0.439-4.293-0.589c-0.076-0.009-0.143,0.045-0.151,0.12C181.346,272.46,181.4,272.528,181.475,272.536z"
							/>
					</g>
					<path style="fill-rule:evenodd;clip-rule:evenodd;fill:#333333;" d="M316.425,271.24c1.141-5.073,5.201-8.83,10.03-8.83
						s8.889,3.757,10.03,8.83H316.425z"/>
					<path style="fill-rule:evenodd;clip-rule:evenodd;fill:#E2815E;" d="M317.619,264.412c0.106-0.582,0.237-1.054,0.342-1.223
						c0.157-0.25,0.357-0.466,0.733-0.585c0.448-0.142,1.018-0.171,1.492-0.075c0.116,0.023,0.518,0.217,0.623,0.206
						c0.071-0.008,0.136-0.147,0.158-0.182c0.126-0.211,0.16-0.449,0.369-0.635c0.469-0.422,1.52-0.774,2.305-0.82
						c0.804-0.046,1.515,0.246,2.039,0.62c0.162,0.116,0.288,0.254,0.416,0.385c0.062,0.063,0.094,0.244,0.176,0.192
						c0.401-0.255,0.391-0.647,0.879-0.889c1.396-0.692,3.032,0.175,3.848,0.872c0.315,0.269,0.636,0.529,0.799,0.854
						c0.007,0.016,0.213,0.534,0.256,0.53c0.287-0.028,0.38-0.311,0.767-0.319c1.079-0.02,1.83,0.973,2.221,1.493
						c0,0,1.132,1.724,1.337,2.988c0.164,1.02-1.576,2.995-2.948,0.716c-0.607-1.008-0.655-1.166-0.874-2.145
						c-0.077-0.34-0.186-0.677-0.275-1.015c-0.028-0.267-0.079-0.526-0.157-0.775c-0.019-0.063,0.005,0.129,0.017,0.193
						c0.027,0.144,0.067,0.287,0.101,0.43c0.013,0.051,0.026,0.101,0.038,0.152c0.131,1.247-0.159,2.01-0.685,3.138
						c-0.325,0.696-1.678,1.702-2.724,0.52c-0.52-0.59-0.671-0.819-0.896-1.462c-0.299-0.856-0.538-1.717-0.684-2.591
						c-0.089-0.528-0.141-0.759-0.29-1.281c-0.047-0.167-0.247-0.183-0.245-0.042c0.007,0.433-0.054,0.7-0.083,1.133
						c-0.089,1.359-0.126,2.685-0.776,3.988c-0.168,0.339-0.633,0.773-1.346,0.764c-0.784-0.01-1.285-0.446-1.485-0.834
						c-0.393-0.759-0.801-1.594-1.037-2.379c-0.167-0.556-0.169-1.142-0.275-1.704c-0.071-0.382-0.31-1.018-0.293-0.87
						c0.057,0.491,0.098,0.973,0.052,1.467c-0.102,1.083-0.397,2.337-1.199,3.308c-0.468,0.564-1.399,0.827-2.128,0.296
						c-0.278-0.201-0.456-0.42-0.57-0.65l-0.001,0.003c-0.02,0.175-0.057,0.348-0.11,0.515c-0.041,0.132-0.091,0.261-0.165,0.378
						c-0.149,0.235-0.372,0.415-0.615,0.544c-0.183,0.097-0.381,0.168-0.583,0.215c-0.265,0.063-0.54,0.087-0.812,0.073
						c-0.082-0.005-0.164-0.013-0.246-0.026c-0.248-0.036-0.492-0.109-0.716-0.224c-0.126-0.065-0.245-0.144-0.347-0.242
						c-0.096-0.092-0.177-0.199-0.239-0.317c-0.061-0.115-0.105-0.239-0.132-0.366c-0.055-0.258-0.048-0.528,0.008-0.785
						c0.03-0.134,0.073-0.265,0.132-0.389c0.048-0.099,0.106-0.194,0.17-0.284c0.082-0.116,0.175-0.225,0.275-0.326
						c0.103-0.104,0.216-0.2,0.339-0.283c0.098-0.066,0.202-0.123,0.311-0.164c0.068-0.026,0.14-0.046,0.212-0.057
						c0.043-0.008,0.086-0.011,0.13-0.015c0.051-0.004,0.102-0.008,0.155-0.011c0.022-0.001,0.045-0.002,0.067-0.003
						c0.255-0.1,0.507-0.21,0.732-0.368c0.265-0.186,0.482-0.452,0.692-0.696c0.175-0.203,0.361-0.388,0.518-0.607
						C317.472,264.639,317.547,264.526,317.619,264.412z"/>
					<path style="fill-rule:evenodd;clip-rule:evenodd;fill:#E2815E;" d="M231.477,150.651c-1.967-7.879-1.164-30.96,19.081-30.079
						c21.182,0.921,19.04,23.174,17.86,30.374c-0.35,2.133-0.402,9.288-5.026,15.05c-3.712,4.626-6.768,8.275-13.339,8.353
						c-5.717,0.066-9.167-3.408-12.721-7.691C232.365,160.67,232.317,154.018,231.477,150.651z"/>
					<g>
						<defs>
							<path id="SVGID_00000164498699409066194330000016626532403746654860_" d="M231.477,150.651
								c-1.967-7.879-1.164-30.96,19.081-30.079c21.182,0.921,19.04,23.174,17.86,30.374c-0.35,2.133-0.402,9.288-5.026,15.05
								c-3.712,4.626-6.768,8.275-13.339,8.353c-5.717,0.066-9.167-3.408-12.721-7.691
								C232.365,160.67,232.317,154.018,231.477,150.651z"/>
						</defs>
						<clipPath id="SVGID_00000070080380669819529880000008094005265145389977_">
							<use xlink:href="#SVGID_00000164498699409066194330000016626532403746654860_"  style="overflow:visible;"/>
						</clipPath>
						
							<path style="clip-path:url(#SVGID_00000070080380669819529880000008094005265145389977_);fill-rule:evenodd;clip-rule:evenodd;fill:#DE9D3A;" d="
							M228.311,138.472c0.24,1.039,0.434,2.081,0.697,3.117c0.097,0.378,0.35,1.868,0.479,2.235
							c0.07,0.199,9.506-15.011,12.233-17.481c1.157-1.048,2.975-2.383,2.874-4.131c-0.328-5.682-6.633-10.677-11.664-6.374
							c-4.48,3.832-6.285,10.249-6.309,15.922"/>
					</g>
					<path style="fill-rule:evenodd;clip-rule:evenodd;fill:#E2815E;" d="M266.742,146.361c0.455-1.077,1.237-2.168,2.329-2.675
						c3.608-1.669,6.075,2.869,4.481,5.861c-0.441,0.828-1.141,1.492-1.874,2.062c-1.263,0.981-2.779,1.619-4.336,1.954
						c-1.875,0.403-3.824,0.441-5.727,0.258"/>
					<path style="fill-rule:evenodd;clip-rule:evenodd;fill:#E2815E;" d="M232.01,145.021c-1.03-1.47-4.041-1.888-5.233-0.439
						c-2.532,3.079-0.142,8.189,3.465,8.907c1.755,0.349,3.561,0.183,5.331,0.033"/>
					<path style="fill-rule:evenodd;clip-rule:evenodd;fill:#E2815E;" d="M243.985,171.84c0.38,6.479-2.811,14.974-2.811,14.974
						s8.317,6.757,17.358-0.157c0.497-0.38-3.366-9.066-2.865-15.398"/>
					<polygon style="fill-rule:evenodd;clip-rule:evenodd;fill:#E2815E;" points="262.604,441.328 261.874,432.562 275.36,432.584 
						274.637,441.577 					"/>
					<path style="fill-rule:evenodd;clip-rule:evenodd;fill:#CA5131;" d="M257.737,417.569c-1.857-21.596-5.005-60.48-6.159-88.481
						l30.339-0.751c0,0-0.095,53.135-2.339,89.365c0.241,1.071,0.574,2.114,0.93,3.156c0.341,1.002,0.896,2.346,0.626,3.47
						c-0.129,0.535-0.66,0.646-1.04,0.888c-0.558,0.355-1.096,1.149-1.162,1.882c-0.009,0.098,0.271,0.294,0.341,0.349
						c0.336,0.261,1.03,0.412,1.147,0.905c0.232,0.98-1.58,1.693-1.659,2.668c-0.018,0.215,0.345,0.419,0.471,0.52
						c0.377,0.305,1.843,1.163,1.82,1.753c-0.001,0.028-0.595,0.099-0.621,0.102c-0.201,0.026-0.402,0.049-0.604,0.06
						c-0.326,0.018-0.652,0.05-0.979,0.067c-0.173,0.008-0.348,0.013-0.521,0.02l-0.011,0.103h-0.857
						c-0.029,0.006-0.058,0.015-0.086,0.022v-0.022h-17.366c-0.587,0.015-1.175,0.011-1.723-0.018
						c-0.336-0.017-0.865,0.02-1.111-0.213c-0.14-0.132,0.318-0.709,0.381-0.855c0.314-0.732,1.215-1.863,0.95-2.659
						c-0.335-1.006-2.284-0.928-2.447-1.978c-0.14-0.898,0.883-1.567,1.423-2.235c0.484-0.597,0.626-1.385,0.652-2.094
						c0.051-1.401-2.221-2.243-1.923-3.528C256.382,419.306,257.09,418.294,257.737,417.569z"/>
					<path style="fill-rule:evenodd;clip-rule:evenodd;fill:#5290D7;" d="M276.458,440.818H260.55c0,0-1.628,7.662-3.165,10.709
						c-1.469,2.914,24.85,4.598,23.473,0.927C279.664,449.271,276.458,440.818,276.458,440.818z"/>
					<path style="fill-rule:evenodd;clip-rule:evenodd;fill:#5FA4EC;" d="M282.072,457.277c0,0-0.063-12.064-12.86-11.823
						c-10.639,0.2-12.951,6.175-12.858,12.15"/>
					<rect x="256.351" y="456.908" style="fill-rule:evenodd;clip-rule:evenodd;fill:#FFFFFF;" width="25.721" height="3.804"/>
					<polygon style="fill-rule:evenodd;clip-rule:evenodd;fill:#E2815E;" points="222.683,441.328 221.952,432.562 235.438,432.584 
						234.716,441.577 					"/>
					<path style="fill-rule:evenodd;clip-rule:evenodd;fill:#CA5131;" d="M217.476,419.06c-3.103-36.217-1.212-92.022-1.212-92.022
						l29.093,2.05c-1.832,28.638-4.342,67.06-5.743,88.455c0.66,0.729,1.399,1.772,1.579,2.549c0.297,1.285-1.974,2.129-1.922,3.528
						c0.026,0.71,0.167,1.497,0.651,2.095c0.542,0.668,1.563,1.337,1.423,2.235c-0.162,1.049-2.113,0.97-2.447,1.976
						c-0.266,0.796,0.636,1.927,0.95,2.659c0.063,0.146,0.52,0.723,0.381,0.856c-0.246,0.232-0.775,0.195-1.11,0.212
						c-0.765,0.04-1.607,0.034-2.419-0.008h-16.672l0.002,0.05c-0.07-0.02-0.141-0.036-0.212-0.05h-0.607l-0.012-0.07
						c-0.215-0.012-0.432-0.015-0.646-0.026c-0.327-0.017-0.654-0.05-0.98-0.067c-0.202-0.011-0.403-0.035-0.604-0.06
						c-0.027-0.003-0.62-0.075-0.622-0.103c-0.022-0.589,1.443-1.447,1.82-1.752c0.126-0.102,0.489-0.305,0.472-0.52
						c-0.08-0.976-1.892-1.69-1.66-2.668c0.117-0.493,0.811-0.644,1.148-0.905c0.033-0.027,0.115-0.085,0.191-0.15l-0.038-0.313
						c-0.017-0.148-0.034-0.295-0.052-0.443l-0.036-0.319c-0.223-0.421-0.551-0.792-0.886-1.005
						c-0.381-0.242-0.911-0.354-1.04-0.888c-0.271-1.125,0.285-2.468,0.627-3.471C217.1,420.279,217.298,419.672,217.476,419.06z"/>
					<path style="fill-rule:evenodd;clip-rule:evenodd;fill:#5290D7;" d="M220.477,440.818h15.908c0,0,2.406,7.533,3.745,12.149
						c0.719,2.484-25.389,2.347-23.909-0.561C218.175,448.564,220.477,440.818,220.477,440.818z"/>
					<path style="fill-rule:evenodd;clip-rule:evenodd;fill:#5FA4EC;" d="M215.107,457.277c0,0,0.063-12.064,12.861-11.823
						c10.637,0.2,12.951,6.175,12.857,12.15"/>
					<rect x="215.107" y="456.908" style="fill-rule:evenodd;clip-rule:evenodd;fill:#FFFFFF;" width="25.721" height="3.804"/>
					<path style="fill-rule:evenodd;clip-rule:evenodd;fill:#39648F;" d="M274.509,444.943c-0.178,0.029-0.332,0.076-0.513,0.078
						c-1.464,0.019-2.915-0.412-4.38-0.501c-0.679-0.041-1.357-0.06-2.037,0c-0.631,0.05-1.255,0.182-1.873,0.347
						c-0.849,0.227-1.636,0.681-2.488,0.859c-0.115,0.024-0.206,0.002-0.323,0.005c-0.141,0.064-0.307,0.003-0.372-0.138
						c-0.065-0.141-0.002-0.307,0.139-0.372c0.109-0.102,0.189-0.204,0.313-0.288c0.448-0.304,0.981-0.47,1.493-0.662
						c0.981-0.367,2.007-0.606,3.037-0.686c1.21-0.083,2.417,0.012,3.611,0.222c1.046,0.184,2.126,0.286,3.107,0.67
						c0.127,0.05,0.207,0.126,0.324,0.196c0.076,0.011,0.127,0.08,0.116,0.155C274.653,444.901,274.584,444.953,274.509,444.943z
						 M222.961,445.058c0.179,0.029,0.331,0.076,0.514,0.078c1.462,0.019,2.915-0.412,4.379-0.501
						c0.679-0.041,1.357-0.059,2.037,0.001c0.631,0.05,1.256,0.182,1.874,0.347c0.848,0.227,1.636,0.681,2.487,0.859
						c0.115,0.024,0.207,0.002,0.323,0.005c0.141,0.065,0.308,0.003,0.372-0.138c0.065-0.141,0.003-0.307-0.137-0.372
						c-0.109-0.102-0.19-0.204-0.314-0.288c-0.447-0.304-0.981-0.471-1.493-0.662c-0.981-0.367-2.007-0.606-3.037-0.686
						c-1.209-0.083-2.417,0.012-3.61,0.222c-1.046,0.184-2.126,0.286-3.106,0.67c-0.128,0.05-0.208,0.126-0.325,0.196
						c-0.075,0.011-0.127,0.08-0.116,0.155C222.817,445.017,222.886,445.069,222.961,445.058z"/>
					<path style="fill-rule:evenodd;clip-rule:evenodd;fill:#FFFFFF;" d="M241.845,143.789c1.874,0,3.396,1.677,3.396,3.744
						c0,2.066-1.522,3.743-3.396,3.743c-1.875,0-3.397-1.677-3.397-3.743C238.448,145.466,239.97,143.789,241.845,143.789z"/>
					<g>
						<defs>
							<path id="SVGID_00000109749811442220379290000000740421388463248038_" d="M241.845,143.789c1.874,0,3.396,1.677,3.396,3.744
								c0,2.066-1.522,3.743-3.396,3.743c-1.875,0-3.397-1.677-3.397-3.743C238.448,145.466,239.97,143.789,241.845,143.789z"/>
						</defs>
						<clipPath id="SVGID_00000076594664245758654440000013520566455067678118_">
							<use xlink:href="#SVGID_00000109749811442220379290000000740421388463248038_"  style="overflow:visible;"/>
						</clipPath>
						
							<path style="clip-path:url(#SVGID_00000076594664245758654440000013520566455067678118_);fill-rule:evenodd;clip-rule:evenodd;fill:#808CFA;" d="
							M242.083,146.18c1.736,0,3.146,1.382,3.146,3.084c0,1.702-1.409,3.085-3.146,3.085s-3.147-1.383-3.147-3.085
							C238.936,147.562,240.346,146.18,242.083,146.18z"/>
						
							<path style="clip-path:url(#SVGID_00000076594664245758654440000013520566455067678118_);fill-rule:evenodd;clip-rule:evenodd;fill:#2E2E2E;" d="
							M242.056,147.143c1.224-0.054,2.284,0.88,2.367,2.083c0.083,1.203-0.843,2.225-2.067,2.278
							c-1.224,0.054-2.284-0.88-2.367-2.083C239.906,148.217,240.832,147.196,242.056,147.143z"/>
					</g>
					<path style="fill-rule:evenodd;clip-rule:evenodd;fill:#2A2A2A;" d="M238.757,146.118c0.065-0.174,0.496-0.947,1.372-1.437
						c0.481-0.27,1.1-0.449,1.886-0.375c0.723-0.005,1.281,0.195,1.71,0.464c0.799,0.501,1.162,1.224,1.225,1.372
						c0.015,0.042,0.06,0.063,0.1,0.049c0.04-0.014,0.063-0.059,0.049-0.1c-0.046-0.171-0.318-1.022-1.117-1.678
						c-0.46-0.376-1.093-0.67-1.936-0.755c-0.925-0.001-1.634,0.264-2.16,0.641c-0.902,0.646-1.253,1.569-1.298,1.769
						c-0.014,0.047,0.013,0.096,0.06,0.11C238.694,146.192,238.743,146.165,238.757,146.118z"/>
					<path style="fill-rule:evenodd;clip-rule:evenodd;fill:#FFFFFF;" d="M258.51,143.789c-1.875,0-3.397,1.677-3.397,3.744
						c0,2.066,1.522,3.743,3.397,3.743c1.875,0,3.397-1.677,3.397-3.743C261.907,145.466,260.385,143.789,258.51,143.789z"/>
					<g>
						<defs>
							<path id="SVGID_00000121985598624046669380000002572112066386536332_" d="M258.51,143.789c-1.875,0-3.397,1.677-3.397,3.744
								c0,2.066,1.522,3.743,3.397,3.743c1.875,0,3.397-1.677,3.397-3.743C261.907,145.466,260.385,143.789,258.51,143.789z"/>
						</defs>
						<clipPath id="SVGID_00000059306714598754020750000015211347832132070273_">
							<use xlink:href="#SVGID_00000121985598624046669380000002572112066386536332_"  style="overflow:visible;"/>
						</clipPath>
						
							<path style="clip-path:url(#SVGID_00000059306714598754020750000015211347832132070273_);fill-rule:evenodd;clip-rule:evenodd;fill:#808CFA;" d="
							M258.147,146.061c-1.762,0-3.192,1.403-3.192,3.13c0,1.727,1.43,3.13,3.192,3.13c1.761,0,3.191-1.403,3.191-3.13
							C261.339,147.464,259.908,146.061,258.147,146.061z"/>
						
							<path style="clip-path:url(#SVGID_00000059306714598754020750000015211347832132070273_);fill-rule:evenodd;clip-rule:evenodd;fill:#2E2E2E;" d="
							M258.122,147.177c-1.224-0.054-2.284,0.88-2.366,2.083c-0.083,1.204,0.843,2.225,2.067,2.278
							c1.224,0.054,2.284-0.88,2.367-2.083C260.272,148.251,259.345,147.23,258.122,147.177z"/>
					</g>
					<path style="fill-rule:evenodd;clip-rule:evenodd;fill:#2A2A2A;" d="M261.745,146.034c-0.046-0.199-0.391-1.113-1.292-1.749
						c-0.52-0.368-1.225-0.627-2.144-0.626c-0.848,0.084-1.484,0.382-1.945,0.764c-0.798,0.661-1.074,1.52-1.118,1.691
						c-0.015,0.04,0.007,0.085,0.048,0.1c0.042,0.014,0.086-0.007,0.1-0.049c0.064-0.148,0.431-0.876,1.229-1.385
						c0.432-0.274,0.991-0.479,1.716-0.475c0.782-0.074,1.398,0.099,1.875,0.361c0.873,0.482,1.296,1.245,1.361,1.419
						c0.014,0.047,0.063,0.074,0.11,0.06C261.732,146.131,261.759,146.081,261.745,146.034z"/>
					<path style="fill-rule:evenodd;clip-rule:evenodd;fill:#232323;" d="M269.058,150.142c-0.15,0.323-0.291,0.652-0.411,0.989
						c-0.107,0.296-0.197,0.598-0.263,0.905c-0.014,0.075-0.083,0.122-0.155,0.109c-0.071-0.014-0.119-0.085-0.105-0.16
						c0.061-0.405,0.161-0.804,0.284-1.196c0.121-0.389,0.267-0.771,0.42-1.145c0.208-0.49,0.411-0.998,0.675-1.468
						c0.179-0.321,0.388-0.62,0.617-0.901l1.19-1.137c0.053-0.05,0.136-0.045,0.184,0.011c0.048,0.055,0.044,0.141-0.01,0.191
						l-1.044,1.199l-1.012,1.879c0.068-0.052,0.14-0.1,0.212-0.145c0.381-0.233,0.812-0.366,1.278-0.521l1.159-0.323
						c0.084-0.026,0.173,0.024,0.198,0.11c0.026,0.088-0.022,0.179-0.105,0.206l-1.135,0.42c-0.448,0.118-0.862,0.216-1.234,0.41
						c-0.238,0.124-0.46,0.283-0.661,0.519C269.117,150.121,269.087,150.137,269.058,150.142z M229.667,149.697
						c-0.087-0.134-0.178-0.268-0.271-0.398c-0.157-0.22-0.321-0.434-0.492-0.641c-0.157-0.188-0.319-0.369-0.488-0.544
						c-0.112-0.116-0.227-0.229-0.345-0.338c-0.037-0.034-0.074-0.068-0.111-0.101c-0.006-0.006-0.014-0.012-0.02-0.018
						c-0.008-0.007-0.016-0.014-0.025-0.022c-0.012-0.013-0.022-0.028-0.03-0.043c-0.012-0.021-0.018-0.044-0.021-0.067
						c-0.002-0.024-0.001-0.046,0.004-0.068c0.004-0.019,0.012-0.037,0.023-0.053c0.01-0.018,0.023-0.034,0.039-0.047
						c0.014-0.012,0.029-0.021,0.046-0.029c0.036-0.016,0.077-0.019,0.114-0.008c0.02,0.004,0.041,0.014,0.058,0.026
						c0.005,0.004,0.011,0.007,0.015,0.012c0.007,0.006,0.015,0.012,0.022,0.018c0.021,0.018,0.044,0.036,0.065,0.054
						c0.09,0.076,0.178,0.153,0.264,0.232c0.28,0.255,0.545,0.527,0.793,0.813c0.201,0.233,0.391,0.477,0.57,0.728
						c0.135,0.19,0.265,0.385,0.39,0.582c0.041,0.064,0.08,0.129,0.119,0.194c0.013,0.02,0.024,0.041,0.037,0.061l0.022,0.036
						c0.005,0.012,0.012,0.022,0.017,0.034c0.013,0.022,0.024,0.044,0.037,0.066c0.04,0.074,0.08,0.147,0.119,0.221
						c0.152,0.279,0.299,0.563,0.409,0.863c0.065,0.178,0.117,0.361,0.152,0.548c0.01,0.054,0.018,0.11,0.026,0.165
						c0.002,0.018,0.004,0.036,0.006,0.053c0.001,0.009,0.002,0.016,0.003,0.025c0,0.017-0.002,0.034-0.007,0.051
						c-0.011,0.034-0.036,0.063-0.068,0.079c-0.012,0.006-0.026,0.011-0.04,0.013c-0.013,0.001-0.026,0.001-0.037-0.001
						c-0.015-0.002-0.03-0.007-0.043-0.015c-0.014-0.008-0.027-0.018-0.037-0.03c-0.01-0.013-0.018-0.027-0.023-0.042
						c-0.002-0.005-0.003-0.011-0.004-0.015c-0.001-0.003-0.001-0.006-0.002-0.009c-0.003-0.012-0.006-0.023-0.01-0.035
						c-0.011-0.042-0.023-0.082-0.036-0.122c-0.047-0.142-0.107-0.278-0.171-0.411c-0.088-0.183-0.185-0.363-0.288-0.538
						c-0.085-0.147-0.175-0.292-0.264-0.435c-0.033-0.052-0.065-0.105-0.098-0.157c-0.013-0.02-0.027-0.04-0.04-0.061l-0.014-0.024
						c-0.011-0.019-0.022-0.039-0.034-0.06c-0.032-0.054-0.064-0.11-0.097-0.164l-0.001-0.002c-0.38-0.148-0.796-0.228-1.213-0.259
						c-0.456-0.034-0.914-0.012-1.335,0.131c-0.034,0.014-0.072-0.003-0.085-0.04c-0.014-0.035,0.003-0.075,0.037-0.089
						c0.43-0.199,0.91-0.304,1.395-0.291C229.031,149.536,229.357,149.598,229.667,149.697z M249.637,145.983
						c-0.254,1.442-0.291,2.97-0.14,4.484c0.152,1.519,0.499,3.018,1.013,4.399c0.174,0.449,0.375,0.883,0.614,1.296
						c0.238,0.413,0.513,0.804,0.812,1.179l0.698,0.669c0.027,0.709-0.576,1.193-1.288,1.48c-0.785,0.316-1.713,0.397-2.301,0.203
						c-0.053-0.021-0.114,0.006-0.135,0.06c-0.02,0.054,0.006,0.115,0.06,0.135c0.736,0.327,2.041,0.284,3.016-0.151
						c0.759-0.339,1.295-0.925,1.343-1.717c0.006-0.125-0.042-0.272-0.136-0.423c-0.162-0.261-0.528-0.567-0.65-0.733
						c-0.274-0.349-0.517-0.718-0.741-1.096c-0.223-0.38-0.427-0.771-0.598-1.18c-0.565-1.304-0.974-2.73-1.199-4.185
						c-0.226-1.467-0.269-2.959-0.098-4.379c0.011-0.075-0.04-0.144-0.115-0.156C249.717,145.856,249.648,145.908,249.637,145.983z
						 M245.534,164.772c0.114,0.188,0.209,0.354,0.351,0.51c0.336,0.366,0.755,0.608,1.166,0.816
						c0.957,0.488,1.995,0.645,2.974,0.637c1.089-0.008,2.144-0.205,2.965-0.586c0.764-0.355,1.305-0.838,1.627-1.226
						c0.08-0.075,0.085-0.201,0.011-0.28c-0.075-0.081-0.2-0.086-0.28-0.012c-0.367,0.258-0.969,0.446-1.684,0.666
						c-0.773,0.239-1.678,0.493-2.65,0.514c-0.857,0.018-1.745-0.128-2.621-0.471c-0.381-0.149-0.744-0.351-1.139-0.547
						c-0.177-0.089-0.35-0.134-0.535-0.224c-0.055-0.05-0.142-0.046-0.193,0.01C245.475,164.634,245.479,164.722,245.534,164.772z
						 M246.814,173.725c0.806,0.74,1.974,1.139,3.118,1.163c1.646,0.035,3.023-0.628,3.127-1.143c0.015-0.045-0.028-0.09-0.097-0.1
						c-0.069-0.011-0.139,0.017-0.155,0.062c-0.213,0.408-1.481,0.592-2.848,0.571c-1.004-0.015-2.096-0.098-3.004-0.633
						c-0.035-0.025-0.094-0.028-0.132-0.005C246.783,173.662,246.78,173.7,246.814,173.725z"/>
					<path style="fill-rule:evenodd;clip-rule:evenodd;fill:#D86C50;" d="M257.542,158.027c-0.158,1.829,1.83,3.064,3.494,2.886
						c1.567-0.167,2.573-1.527,2.525-3.048c-0.018-0.586-0.146-1.21-0.427-1.729c-0.151-0.279-0.355-0.53-0.588-0.745
						c-1.428-1.314-3.43-0.846-4.398,0.508C257.71,156.511,257.542,158.027,257.542,158.027z M236.67,158.164
						c-0.158,1.828,1.83,3.063,3.494,2.886c1.567-0.167,2.573-1.528,2.525-3.048c-0.018-0.587-0.146-1.211-0.427-1.73
						c-0.151-0.278-0.355-0.529-0.588-0.744c-1.428-1.316-3.43-0.846-4.398,0.507C236.838,156.647,236.67,158.164,236.67,158.164z"
						/>
					<path style="fill-rule:evenodd;clip-rule:evenodd;fill:#AA6C20;" d="M237.014,142.831c1.039-1.19,2.459-1.839,3.894-2.281
						c1.558-0.479,3.165-0.706,4.533-0.463c0.107,0.026,0.214-0.041,0.239-0.148c0.026-0.107-0.041-0.214-0.148-0.239
						c-1.434-0.423-3.224-0.556-4.899-0.039c-1.559,0.48-2.955,1.514-3.934,2.926c-0.068,0.087-0.053,0.212,0.035,0.279
						C236.821,142.933,236.946,142.917,237.014,142.831z M263.277,141.134c-1.238-1.191-2.81-1.931-4.432-2.095
						c-1.744-0.178-3.474,0.305-4.796,1.001c-0.101,0.046-0.144,0.164-0.099,0.264c0.046,0.1,0.164,0.144,0.264,0.098
						c1.294-0.507,2.915-0.602,4.537-0.438c1.493,0.152,3.012,0.509,4.266,1.472c0.083,0.071,0.209,0.062,0.281-0.021
						C263.37,141.332,263.361,141.206,263.277,141.134z"/>
				</g>
			</g>
			<g>
				<path style="fill-rule:evenodd;clip-rule:evenodd;fill:#DE9D3A;" d="M230.501,143.916c0,0,0.126,2.138,0.755,2.39
					c0.629,0.252,10.692-14.843,10.315-18.994c0,0,8.302,6.919,17.233,2.264c0,0,4.182,12.621,10.268,14.11
					c6.085,1.488,8.349-12.223,3.947-13.606c0,0,11.321-13.334-2.264-14.592l-0.503-0.252c0,0-5.912-12.327-15.346-4.025
					c0,0-9.937-8.805-15.975,2.013c0,0-10.944-0.377-9.309,10.189c0,0-7.925,2.39-4.025,9.812
					C225.595,133.224,223.331,143.665,230.501,143.916z"/>
				<path style="fill-rule:evenodd;clip-rule:evenodd;fill:#DE9D3A;" d="M245.795,126.647c2.671,0.955,5.753,0.123,7.991-1.62
					c0.102,1.356,0.215,2.751,0.817,3.97c0.694,1.404,2.039,2.47,3.564,2.825c1.526,0.355,3.203-0.008,4.445-0.962
					c-0.36,3.751,0.518,7.611,2.467,10.836c0.325,0.537,0.692,1.072,1.217,1.417c1.174,0.771,2.851,0.33,3.818-0.689
					s1.346-2.463,1.482-3.861c0.335-3.438-0.588-6.876-1.779-10.118c-0.442-1.204-0.933-2.413-1.728-3.42
					c-0.84-1.063-1.976-1.846-3.1-2.604c-2.412-1.626-4.894-3.235-7.683-4.064c-3.337-0.992-6.894-0.805-10.369-0.61
					c-2.217,0.125-5.246,0.27-5.259,3.079C241.667,123.362,243.426,125.8,245.795,126.647z"/>
				<path style="fill-rule:evenodd;clip-rule:evenodd;fill:#DE9D3A;" d="M233.829,137.897c1.304,0.562,2.82,0.062,4.057-0.635
					c1.263-0.712,2.443-1.67,3.096-2.965c0.653-1.295,0.68-2.972-0.207-4.119c1.118-0.126,2.043-1.005,2.504-2.031
					c0.461-1.026,0.529-2.182,0.516-3.307c-0.013-1.068-0.126-2.217-0.821-3.027c-0.871-1.016-2.444-1.178-3.703-0.724
					c-1.258,0.454-2.268,1.404-3.202,2.362c-3.536,3.627-6.66,7.914-8.033,12.852c-0.575,2.068-1.293,4.941,0.028,6.859
					c0.882,1.28,2.691,2.132,4.195,1.453c1.059-0.478,1.598-1.61,1.876-2.68C234.306,141.284,234.687,138.266,233.829,137.897z"/>
			</g>
		</g>
		<g>
			<g>
				<polygon style="opacity:0.4451;fill-rule:evenodd;clip-rule:evenodd;fill:#FFFFFF;" points="184.234,238.23 163.127,238.23 
					165.036,271.585 181.787,271.585 				"/>
				<g>
					<defs>
						<polygon id="SVGID_00000036944075167886399820000016672351563814067073_" points="184.234,238.23 163.127,238.23 
							165.036,271.585 181.787,271.585 						"/>
					</defs>
					<clipPath id="SVGID_00000123412113506630619800000012029828952764381371_">
						<use xlink:href="#SVGID_00000036944075167886399820000016672351563814067073_"  style="overflow:visible;"/>
					</clipPath>
					
						<path style="clip-path:url(#SVGID_00000123412113506630619800000012029828952764381371_);fill-rule:evenodd;clip-rule:evenodd;fill:#5FA4EC;" d="
						M160.536,255.628c1.179-0.497,2.525-0.359,3.759-0.363c2.603-0.01,5.199,0.159,7.801,0.227
						c3.34,0.089,6.677,0.258,10.019,0.278c1.08,0.007,2.157,0.022,3.236,0.059c0.368,0.012,0.898-0.053,1.232,0.174
						c0.263,0.179,0.247,0.643,0.237,0.932c-0.037,0.951-0.228,1.917-0.368,2.856c-0.367,2.459-0.389,4.969-0.508,7.456
						c-0.078,1.619-0.105,3.281-0.791,4.752c-1.042,2.234-3.458,3.235-5.522,3.802c-3.252,0.893-6.368,1.342-9.716,0.952
						c-1.56-0.181-3.128-0.574-4.432-1.594c-2.48-1.938-2.799-5.521-3.631-8.479"/>
				</g>
				<path style="fill-rule:evenodd;clip-rule:evenodd;fill:#7AC0FC;" d="M170.695,259.156c0.56,0,1.015,0.454,1.015,1.014
					c0,0.561-0.455,1.015-1.015,1.015c-0.561,0-1.015-0.454-1.015-1.015C169.68,259.611,170.135,259.156,170.695,259.156z
					 M177.579,259.96c0.393,0,0.713,0.32,0.713,0.713c0,0.393-0.32,0.713-0.713,0.713c-0.394,0-0.713-0.32-0.713-0.713
					C176.866,260.28,177.185,259.96,177.579,259.96z M169.433,264.563c0.393,0,0.713,0.32,0.713,0.713
					c0,0.393-0.32,0.713-0.713,0.713c-0.393,0-0.713-0.32-0.713-0.713C168.72,264.883,169.04,264.563,169.433,264.563z
					 M174.873,264.457c1.134,0,2.055,0.921,2.055,2.055c0,1.134-0.921,2.055-2.055,2.055s-2.055-0.921-2.055-2.055
					C172.818,265.378,173.739,264.457,174.873,264.457z"/>
			</g>
			<g>
				<polygon style="fill-rule:evenodd;clip-rule:evenodd;fill:#E2B897;" points="123.651,216.235 124.029,210.624 126.958,215.425 
					125.577,216.943 				"/>
				
					<rect x="128.961" y="215.183" transform="matrix(0.9713 -0.238 0.238 0.9713 -52.8135 37.9229)" style="fill-rule:evenodd;clip-rule:evenodd;fill:#DE9D3A;" width="3.404" height="45.044"/>
				<polygon style="fill-rule:evenodd;clip-rule:evenodd;fill:#E2B897;" points="135.974,210.624 137.675,205.263 139.377,210.624 
					137.675,211.77 				"/>
				<rect x="135.974" y="210.623" style="fill-rule:evenodd;clip-rule:evenodd;fill:#2E4E9D;" width="3.404" height="45.044"/>
				<polygon style="fill-rule:evenodd;clip-rule:evenodd;fill:#E2B897;" points="147.653,213.042 150.687,208.305 150.94,213.924 
					149,214.589 				"/>
				
					<rect x="120.935" y="233.533" transform="matrix(0.2593 -0.9658 0.9658 0.2593 -120.9287 312.7934)" style="fill-rule:evenodd;clip-rule:evenodd;fill:#FFFFFF;" width="45.044" height="3.404"/>
				<rect x="126.383" y="238.23" style="fill-rule:evenodd;clip-rule:evenodd;fill:#CA5131;" width="21.825" height="33.355"/>
				<g>
					<defs>
						
							<rect id="SVGID_00000109729145190198824110000005362876209637675176_" x="126.383" y="238.23" width="21.825" height="33.355"/>
					</defs>
					<clipPath id="SVGID_00000057150138867284619030000012430096566266885818_">
						<use xlink:href="#SVGID_00000109729145190198824110000005362876209637675176_"  style="overflow:visible;"/>
					</clipPath>
					
						<rect x="121.763" y="250.468" style="clip-path:url(#SVGID_00000057150138867284619030000012430096566266885818_);fill-rule:evenodd;clip-rule:evenodd;fill:#2E4E9D;" width="31.622" height="11.257"/>
				</g>
			</g>
			<g>
				<rect x="123.132" y="283.883" style="fill-rule:evenodd;clip-rule:evenodd;fill:#C0791C;" width="245.23" height="60.669"/>
				<polygon style="fill-rule:evenodd;clip-rule:evenodd;fill:#D48722;" points="378.555,296.294 362.166,296.294 364.702,460.626 
					370.446,460.626 				"/>
				<polygon style="fill-rule:evenodd;clip-rule:evenodd;fill:#D48722;" points="114.936,296.294 131.326,296.294 128.79,460.626 
					123.045,460.626 				"/>
				<rect x="111.504" y="277.284" style="fill-rule:evenodd;clip-rule:evenodd;fill:#E79E34;" width="271.357" height="21.848"/>
				<rect x="101.265" y="271.07" style="fill-rule:evenodd;clip-rule:evenodd;fill:#C0791C;" width="293.211" height="8.273"/>
			</g>
		</g>
		<g>
			<rect x="199.152" y="204.1" style="fill-rule:evenodd;clip-rule:evenodd;fill:#FFFFFF;" width="103.879" height="68.016"/>
			<g>
				<defs>
					
						<rect id="SVGID_00000109007439628330157530000007763220418391588271_" x="199.152" y="204.1" width="103.879" height="68.016"/>
				</defs>
				<clipPath id="SVGID_00000160173691577909098170000003084581007244119192_">
					<use xlink:href="#SVGID_00000109007439628330157530000007763220418391588271_"  style="overflow:visible;"/>
				</clipPath>
				
					<rect x="191.377" y="263.479" style="clip-path:url(#SVGID_00000160173691577909098170000003084581007244119192_);fill-rule:evenodd;clip-rule:evenodd;fill:#E3E3E3;" width="120.969" height="11.849"/>
				
					<path style="clip-path:url(#SVGID_00000160173691577909098170000003084581007244119192_);fill-rule:evenodd;clip-rule:evenodd;fill:#E3E3E3;" d="
					M253.28,229.099c4.465,0,8.09,3.624,8.09,8.089c0,4.465-3.624,8.09-8.09,8.09c-4.464,0-8.089-3.624-8.089-8.09
					C245.191,232.723,248.815,229.099,253.28,229.099z"/>
			</g>
		</g>
		<path style="fill-rule:evenodd;clip-rule:evenodd;fill:#FFFFFF;" d="M260.231,147.824c0,0.387-0.314,0.701-0.701,0.701
			c-0.387,0-0.7-0.314-0.7-0.701s0.314-0.701,0.7-0.701C259.918,147.124,260.231,147.437,260.231,147.824z"/>
		<path style="fill-rule:evenodd;clip-rule:evenodd;fill:#FFFFFF;" d="M243.669,147.824c0,0.387-0.314,0.701-0.701,0.701
			c-0.387,0-0.701-0.314-0.701-0.701s0.314-0.701,0.701-0.701C243.356,147.124,243.669,147.437,243.669,147.824z"/>
	</g>
</g>
</svg>
